<svg xmlns="http://www.w3.org/2000/svg" width="32" height="32" viewBox="0 0 48 48" fill="none">
  <rect x="4" y="4" width="40" height="40" rx="2" fill="#F2C94C"/>
  <ellipse cx="22" cy="13" rx="5" ry="5.5" fill="none" stroke="#006838" stroke-width="2.2"/>
  <path d="M14 42 C14 30 16 24 22 22 C26 24 30 28 30 34 L30 42" fill="none" stroke="#006838" stroke-width="2.2" stroke-linecap="round"/>
  <ellipse cx="32" cy="15" rx="4" ry="4.5" fill="none" stroke="#006838" stroke-width="2"/>
  <path d="M32 20 C36 22 38 28 38 34 L38 42" fill="none" stroke="#006838" stroke-width="2" stroke-linecap="round"/>
  <ellipse cx="25" cy="28" rx="3" ry="3" fill="none" stroke="#006838" stroke-width="1.8"/>
  <path d="M25 31 C25 34 24 38 22 42" fill="none" stroke="#006838" stroke-width="1.8" stroke-linecap="round"/>
  <path d="M25 31 C25 34 26 38 28 42" fill="none" stroke="#006838" stroke-width="1.8" stroke-linecap="round"/>
  <path d="M18 28 C20 26 22 26 25 28" fill="none" stroke="#006838" stroke-width="1.8" stroke-linecap="round"/>
</svg>
